<mxfile host="app.diagrams.net" modified="2023-10-17T11:43:54.345Z" agent="Mozilla/5.0 (Windows NT 10.0; Win64; x64) AppleWebKit/537.36 (KHTML, like Gecko) Chrome/118.0.0.0 Safari/537.36 Edg/118.0.2088.46" version="22.0.4" etag="01LXg75TLIjsAJ7f0UZ-" type="github">
  <diagram name="第 1 页" id="cSJLVrIaJGcHqMzcZEMm">
    <mxGraphModel>
      <root>
        <mxCell id="0" />
        <mxCell id="1" parent="0" />
      </root>
    </mxGraphModel>
  </diagram>
</mxfile>
